<mxfile host="Electron" agent="Mozilla/5.0 (X11; Linux x86_64) AppleWebKit/537.36 (KHTML, like Gecko) draw.io/24.7.8 Chrome/128.0.6613.36 Electron/32.0.1 Safari/537.36" version="24.7.8">
  <diagram name="Page-1" id="djpy0m380xeqneMsfSuU">
    <mxGraphModel dx="1430" dy="824" grid="1" gridSize="10" guides="1" tooltips="1" connect="1" arrows="1" fold="1" page="1" pageScale="1" pageWidth="1169" pageHeight="1654" math="0" shadow="0">
      <root>
        <mxCell id="0" />
        <mxCell id="1" parent="0" />
        <mxCell id="1srhKfQwv6fZrcvu4NG3-7" value="temperature,&amp;nbsp;&lt;div&gt;humidity&lt;/div&gt;" style="edgeStyle=orthogonalEdgeStyle;rounded=0;orthogonalLoop=1;jettySize=auto;html=1;exitX=1;exitY=0.5;exitDx=0;exitDy=0;entryX=0.5;entryY=0;entryDx=0;entryDy=0;curved=1;endArrow=none;endFill=0;startArrow=classic;startFill=1;" edge="1" parent="1" source="1srhKfQwv6fZrcvu4NG3-1" target="1srhKfQwv6fZrcvu4NG3-2">
          <mxGeometry relative="1" as="geometry" />
        </mxCell>
        <mxCell id="1srhKfQwv6fZrcvu4NG3-9" value="fan&amp;nbsp;&lt;div&gt;status&lt;/div&gt;" style="edgeStyle=orthogonalEdgeStyle;rounded=0;orthogonalLoop=1;jettySize=auto;html=1;exitX=0;exitY=0.5;exitDx=0;exitDy=0;entryX=0;entryY=0.75;entryDx=0;entryDy=0;curved=1;" edge="1" parent="1" source="1srhKfQwv6fZrcvu4NG3-1" target="1srhKfQwv6fZrcvu4NG3-5">
          <mxGeometry relative="1" as="geometry">
            <Array as="points">
              <mxPoint x="190" y="330" />
              <mxPoint x="190" y="215" />
            </Array>
          </mxGeometry>
        </mxCell>
        <mxCell id="1srhKfQwv6fZrcvu4NG3-15" value="fan&amp;nbsp;&lt;div&gt;status&lt;/div&gt;" style="edgeStyle=orthogonalEdgeStyle;shape=connector;curved=1;rounded=0;orthogonalLoop=1;jettySize=auto;html=1;exitX=0.5;exitY=1;exitDx=0;exitDy=0;entryX=0;entryY=0.25;entryDx=0;entryDy=0;strokeColor=default;align=center;verticalAlign=middle;fontFamily=Helvetica;fontSize=11;fontColor=default;labelBackgroundColor=default;endArrow=classic;" edge="1" parent="1" source="1srhKfQwv6fZrcvu4NG3-1" target="1srhKfQwv6fZrcvu4NG3-6">
          <mxGeometry relative="1" as="geometry">
            <Array as="points">
              <mxPoint x="280" y="530" />
              <mxPoint x="550" y="530" />
              <mxPoint x="550" y="655" />
            </Array>
          </mxGeometry>
        </mxCell>
        <mxCell id="1srhKfQwv6fZrcvu4NG3-1" value="fan server" style="rounded=1;whiteSpace=wrap;html=1;absoluteArcSize=1;arcSize=14;strokeWidth=2;" vertex="1" parent="1">
          <mxGeometry x="230" y="280" width="100" height="100" as="geometry" />
        </mxCell>
        <mxCell id="1srhKfQwv6fZrcvu4NG3-8" value="temperature,&amp;nbsp;&lt;div&gt;humidity,&amp;nbsp;&lt;/div&gt;&lt;div&gt;moisture&lt;/div&gt;" style="edgeStyle=orthogonalEdgeStyle;rounded=0;orthogonalLoop=1;jettySize=auto;html=1;exitX=0.75;exitY=0;exitDx=0;exitDy=0;entryX=1;entryY=0.75;entryDx=0;entryDy=0;curved=1;" edge="1" parent="1" source="1srhKfQwv6fZrcvu4NG3-2" target="1srhKfQwv6fZrcvu4NG3-5">
          <mxGeometry x="0.4871" y="45" relative="1" as="geometry">
            <mxPoint as="offset" />
          </mxGeometry>
        </mxCell>
        <mxCell id="1srhKfQwv6fZrcvu4NG3-13" value="temperature,&amp;nbsp;&lt;div&gt;humidity,&amp;nbsp;&lt;/div&gt;&lt;div&gt;moisture&lt;/div&gt;" style="edgeStyle=orthogonalEdgeStyle;shape=connector;curved=1;rounded=0;orthogonalLoop=1;jettySize=auto;html=1;exitX=1;exitY=0.5;exitDx=0;exitDy=0;strokeColor=default;align=center;verticalAlign=middle;fontFamily=Helvetica;fontSize=11;fontColor=default;labelBackgroundColor=default;endArrow=classic;entryX=0.25;entryY=0;entryDx=0;entryDy=0;" edge="1" parent="1" source="1srhKfQwv6fZrcvu4NG3-2" target="1srhKfQwv6fZrcvu4NG3-6">
          <mxGeometry relative="1" as="geometry" />
        </mxCell>
        <mxCell id="1srhKfQwv6fZrcvu4NG3-18" value="moisture" style="edgeStyle=orthogonalEdgeStyle;shape=connector;curved=1;rounded=0;orthogonalLoop=1;jettySize=auto;html=1;exitX=0;exitY=0.5;exitDx=0;exitDy=0;entryX=0.75;entryY=0;entryDx=0;entryDy=0;strokeColor=default;align=center;verticalAlign=middle;fontFamily=Helvetica;fontSize=11;fontColor=default;labelBackgroundColor=default;endArrow=classic;" edge="1" parent="1" source="1srhKfQwv6fZrcvu4NG3-2" target="1srhKfQwv6fZrcvu4NG3-3">
          <mxGeometry x="-0.2652" relative="1" as="geometry">
            <mxPoint as="offset" />
          </mxGeometry>
        </mxCell>
        <mxCell id="1srhKfQwv6fZrcvu4NG3-2" value="sensor server" style="rounded=1;whiteSpace=wrap;html=1;absoluteArcSize=1;arcSize=14;strokeWidth=2;" vertex="1" parent="1">
          <mxGeometry x="460" y="400" width="100" height="100" as="geometry" />
        </mxCell>
        <mxCell id="1srhKfQwv6fZrcvu4NG3-10" value="pump&amp;nbsp;&lt;div&gt;status&lt;/div&gt;" style="edgeStyle=orthogonalEdgeStyle;shape=connector;curved=1;rounded=0;orthogonalLoop=1;jettySize=auto;html=1;exitX=0.25;exitY=0;exitDx=0;exitDy=0;entryX=0;entryY=0.25;entryDx=0;entryDy=0;strokeColor=default;align=center;verticalAlign=middle;fontFamily=Helvetica;fontSize=11;fontColor=default;labelBackgroundColor=default;endArrow=classic;" edge="1" parent="1" source="1srhKfQwv6fZrcvu4NG3-3" target="1srhKfQwv6fZrcvu4NG3-5">
          <mxGeometry relative="1" as="geometry">
            <Array as="points">
              <mxPoint x="255" y="390" />
              <mxPoint x="130" y="390" />
              <mxPoint x="130" y="165" />
            </Array>
          </mxGeometry>
        </mxCell>
        <mxCell id="1srhKfQwv6fZrcvu4NG3-14" value="pump&amp;nbsp;&lt;div&gt;status&lt;/div&gt;" style="edgeStyle=orthogonalEdgeStyle;shape=connector;curved=1;rounded=0;orthogonalLoop=1;jettySize=auto;html=1;exitX=1;exitY=0.5;exitDx=0;exitDy=0;entryX=0;entryY=0.5;entryDx=0;entryDy=0;strokeColor=default;align=center;verticalAlign=middle;fontFamily=Helvetica;fontSize=11;fontColor=default;labelBackgroundColor=default;endArrow=classic;" edge="1" parent="1" source="1srhKfQwv6fZrcvu4NG3-3" target="1srhKfQwv6fZrcvu4NG3-6">
          <mxGeometry relative="1" as="geometry" />
        </mxCell>
        <mxCell id="1srhKfQwv6fZrcvu4NG3-3" value="pump server" style="rounded=1;whiteSpace=wrap;html=1;absoluteArcSize=1;arcSize=14;strokeWidth=2;" vertex="1" parent="1">
          <mxGeometry x="230" y="540" width="100" height="100" as="geometry" />
        </mxCell>
        <mxCell id="1srhKfQwv6fZrcvu4NG3-16" value="light&amp;nbsp;&lt;div&gt;status&lt;/div&gt;" style="edgeStyle=orthogonalEdgeStyle;shape=connector;curved=1;rounded=0;orthogonalLoop=1;jettySize=auto;html=1;exitX=1;exitY=0.5;exitDx=0;exitDy=0;entryX=0;entryY=0.75;entryDx=0;entryDy=0;strokeColor=default;align=center;verticalAlign=middle;fontFamily=Helvetica;fontSize=11;fontColor=default;labelBackgroundColor=default;endArrow=classic;" edge="1" parent="1" source="1srhKfQwv6fZrcvu4NG3-4" target="1srhKfQwv6fZrcvu4NG3-6">
          <mxGeometry relative="1" as="geometry" />
        </mxCell>
        <mxCell id="1srhKfQwv6fZrcvu4NG3-4" value="light server" style="rounded=1;whiteSpace=wrap;html=1;absoluteArcSize=1;arcSize=14;strokeWidth=2;" vertex="1" parent="1">
          <mxGeometry x="230" y="680" width="100" height="100" as="geometry" />
        </mxCell>
        <mxCell id="1srhKfQwv6fZrcvu4NG3-17" value="log&amp;nbsp;&lt;div&gt;data&lt;/div&gt;" style="edgeStyle=orthogonalEdgeStyle;shape=connector;curved=1;rounded=0;orthogonalLoop=1;jettySize=auto;html=1;exitX=1;exitY=0.25;exitDx=0;exitDy=0;entryX=0.7;entryY=0;entryDx=0;entryDy=0;strokeColor=default;align=center;verticalAlign=middle;fontFamily=Helvetica;fontSize=11;fontColor=default;labelBackgroundColor=default;endArrow=classic;entryPerimeter=0;" edge="1" parent="1" source="1srhKfQwv6fZrcvu4NG3-5" target="1srhKfQwv6fZrcvu4NG3-6">
          <mxGeometry x="-0.3788" y="-75" relative="1" as="geometry">
            <mxPoint x="330" y="140" as="sourcePoint" />
            <mxPoint x="675" y="604.9999999999998" as="targetPoint" />
            <Array as="points">
              <mxPoint x="670" y="165" />
            </Array>
            <mxPoint as="offset" />
          </mxGeometry>
        </mxCell>
        <mxCell id="1srhKfQwv6fZrcvu4NG3-5" value="logdata server" style="rounded=1;whiteSpace=wrap;html=1;absoluteArcSize=1;arcSize=14;strokeWidth=2;" vertex="1" parent="1">
          <mxGeometry x="230" y="140" width="100" height="100" as="geometry" />
        </mxCell>
        <mxCell id="1srhKfQwv6fZrcvu4NG3-6" value="http server" style="rounded=1;whiteSpace=wrap;html=1;absoluteArcSize=1;arcSize=14;strokeWidth=2;" vertex="1" parent="1">
          <mxGeometry x="600" y="630" width="100" height="100" as="geometry" />
        </mxCell>
      </root>
    </mxGraphModel>
  </diagram>
</mxfile>
